<?xml version="1.0" encoding="utf-8"?>
<!-- Generator: Adobe Illustrator 17.0.2, SVG Export Plug-In . SVG Version: 6.00 Build 0)  -->
<!DOCTYPE svg PUBLIC "-//W3C//DTD SVG 1.1//EN" "http://www.w3.org/Graphics/SVG/1.1/DTD/svg11.dtd">
<svg version="1.1" id="Layer_1" xmlns="http://www.w3.org/2000/svg" xmlns:xlink="http://www.w3.org/1999/xlink" x="0px" y="0px"
	 width="32px" height="32px" viewBox="0 0 32 32" enable-background="new 0 0 32 32" xml:space="preserve">
<g>
	<g>
		<path fill="#282828" d="M22.892,32H9.108C4.085,32,0,27.915,0,22.892V9.108C0,4.086,4.085,0,9.108,0h13.784
			C27.914,0,32,4.086,32,9.108v13.785C32,27.915,27.914,32,22.892,32z M9.108,2.743c-3.51,0-6.365,2.855-6.365,6.365v13.785
			c0,3.51,2.855,6.365,6.365,6.365h13.784c3.51,0,6.365-2.855,6.365-6.365V9.108c0-3.51-2.855-6.365-6.365-6.365H9.108z"/>
	</g>
	<g>
		<path fill="#282828" d="M16,24.193c-4.518,0-8.193-3.675-8.193-8.193c0-4.518,3.676-8.193,8.193-8.193s8.193,3.676,8.193,8.193
			C24.193,20.518,20.518,24.193,16,24.193z M16,10.55c-3.005,0-5.451,2.445-5.451,5.45s2.445,5.451,5.451,5.451
			s5.45-2.445,5.45-5.451S19.005,10.55,16,10.55z"/>
	</g>
	<g>
		<circle fill="#282828" cx="24.545" cy="7.338" r="1.969"/>
	</g>
</g>
</svg>
